# xmcd
#
# Track frame offsets:
#  150
#  6478
#  28458
#  62338
#
# Disc length: 1340 seconds
#
# Revision: 0
# Processed by: cddbd v1.5.1PL2 Copyright (c) Steve Scherf et al.
# Submitted via: Collectorz.com_Music_Collector 6.9
#
DISCID=2f053a04
DTITLE=Calexico - Vienna - Februari 19, 2001 [CD2]
DYEAR=1900
DGENRE=
TTITLE0=Instrumental
TTITLE1=I Started A Joke
TTITLE2=Stray
TTITLE3=Crystal Frontier
EXTD=
EXTT0=
EXTT1=
EXTT2=
EXTT3=
PLAYORDER=
